<svg xmlns="http://www.w3.org/2000/svg" viewBox="0 0 720 540" width="720" height="540" role="img">
<rect width="720" height="540" fill="#0b1220"/>
<g stroke="#1e2b45" stroke-width="1"><line x1="64" y1="132.4" x2="692" y2="132.4"/><line x1="64" y1="206.8" x2="692" y2="206.8"/><line x1="64" y1="281.2" x2="692" y2="281.2"/><line x1="64" y1="355.6" x2="692" y2="355.6"/><line x1="168.7" y1="58" x2="168.7" y2="430"/><line x1="273.3" y1="58" x2="273.3" y2="430"/><line x1="378.0" y1="58" x2="378.0" y2="430"/><line x1="482.7" y1="58" x2="482.7" y2="430"/><line x1="587.3" y1="58" x2="587.3" y2="430"/></g><text x="42" y="244" fill="#9aa7bd" font-family="Manrope, Segoe UI, sans-serif" font-size="16" font-weight="600" transform="rotate(-90 42 244)" text-anchor="middle">preț</text><text x="378" y="478" fill="#9aa7bd" font-family="Manrope, Segoe UI, sans-serif" font-size="16" font-weight="600" text-anchor="middle">timp →</text><text x="692" y="516" fill="#9aa7bd" font-family="Manrope, Segoe UI, sans-serif" font-size="15" text-anchor="end">exemplu schematic · nu este un grafic de cont</text><line x1="78.3" y1="292.8" x2="78.3" y2="337.6" stroke="#22c55e" stroke-width="1.7"/><rect x="69.4" y="299.3" width="17.7" height="35.5" rx="1.2" fill="#22c55e"/><line x1="106.8" y1="257.3" x2="106.8" y2="302.1" stroke="#22c55e" stroke-width="1.7"/><rect x="98.0" y="263.7" width="17.7" height="35.5" rx="1.2" fill="#22c55e"/><line x1="135.4" y1="221.7" x2="135.4" y2="266.5" stroke="#22c55e" stroke-width="1.7"/><rect x="126.5" y="228.2" width="17.7" height="35.5" rx="1.2" fill="#22c55e"/><line x1="163.9" y1="186.2" x2="163.9" y2="231.0" stroke="#22c55e" stroke-width="1.7"/><rect x="155.1" y="192.7" width="17.7" height="35.5" rx="1.2" fill="#22c55e"/><line x1="192.5" y1="190.2" x2="192.5" y2="230.0" stroke="#fb7185" stroke-width="1.7"/><rect x="183.6" y="192.7" width="17.7" height="31.6" rx="1.2" fill="#fb7185"/><line x1="221.0" y1="221.8" x2="221.0" y2="261.6" stroke="#fb7185" stroke-width="1.7"/><rect x="212.2" y="224.3" width="17.7" height="31.6" rx="1.2" fill="#fb7185"/><line x1="249.5" y1="253.4" x2="249.5" y2="293.2" stroke="#fb7185" stroke-width="1.7"/><rect x="240.7" y="255.8" width="17.7" height="31.6" rx="1.2" fill="#fb7185"/><line x1="278.1" y1="233.8" x2="278.1" y2="291.0" stroke="#22c55e" stroke-width="1.7"/><rect x="269.2" y="242.0" width="17.7" height="45.4" rx="1.2" fill="#22c55e"/><line x1="306.6" y1="188.3" x2="306.6" y2="245.6" stroke="#22c55e" stroke-width="1.7"/><rect x="297.8" y="196.6" width="17.7" height="45.4" rx="1.2" fill="#22c55e"/><line x1="335.2" y1="142.9" x2="335.2" y2="200.2" stroke="#22c55e" stroke-width="1.7"/><rect x="326.3" y="151.2" width="17.7" height="45.4" rx="1.2" fill="#22c55e"/><line x1="363.7" y1="97.5" x2="363.7" y2="154.7" stroke="#22c55e" stroke-width="1.7"/><rect x="354.9" y="105.8" width="17.7" height="45.4" rx="1.2" fill="#22c55e"/><line x1="392.3" y1="102.0" x2="392.3" y2="161.8" stroke="#fb7185" stroke-width="1.7"/><rect x="383.4" y="105.8" width="17.7" height="47.4" rx="1.2" fill="#fb7185"/><line x1="420.8" y1="149.4" x2="420.8" y2="209.2" stroke="#fb7185" stroke-width="1.7"/><rect x="412.0" y="153.2" width="17.7" height="47.4" rx="1.2" fill="#fb7185"/><line x1="449.4" y1="196.8" x2="449.4" y2="256.6" stroke="#fb7185" stroke-width="1.7"/><rect x="440.5" y="200.6" width="17.7" height="47.4" rx="1.2" fill="#fb7185"/><line x1="477.9" y1="244.2" x2="477.9" y2="304.0" stroke="#fb7185" stroke-width="1.7"/><rect x="469.1" y="247.9" width="17.7" height="47.4" rx="1.2" fill="#fb7185"/><line x1="506.5" y1="261.1" x2="506.5" y2="297.6" stroke="#22c55e" stroke-width="1.7"/><rect x="497.6" y="266.4" width="17.7" height="29.0" rx="1.2" fill="#22c55e"/><line x1="535.0" y1="232.1" x2="535.0" y2="268.7" stroke="#22c55e" stroke-width="1.7"/><rect x="526.2" y="237.4" width="17.7" height="29.0" rx="1.2" fill="#22c55e"/><line x1="563.5" y1="203.2" x2="563.5" y2="239.7" stroke="#22c55e" stroke-width="1.7"/><rect x="554.7" y="208.5" width="17.7" height="29.0" rx="1.2" fill="#22c55e"/><line x1="592.1" y1="204.9" x2="592.1" y2="262.1" stroke="#fb7185" stroke-width="1.7"/><rect x="583.2" y="208.5" width="17.7" height="45.4" rx="1.2" fill="#fb7185"/><line x1="620.6" y1="250.3" x2="620.6" y2="307.6" stroke="#fb7185" stroke-width="1.7"/><rect x="611.8" y="253.9" width="17.7" height="45.4" rx="1.2" fill="#fb7185"/><line x1="649.2" y1="295.7" x2="649.2" y2="353.0" stroke="#fb7185" stroke-width="1.7"/><rect x="640.3" y="299.3" width="17.7" height="45.4" rx="1.2" fill="#fb7185"/><line x1="677.7" y1="341.2" x2="677.7" y2="398.4" stroke="#fb7185" stroke-width="1.7"/><rect x="668.9" y="344.7" width="17.7" height="45.4" rx="1.2" fill="#fb7185"/><line x1="249.5" y1="287.4" x2="683.4" y2="304.2" stroke="#fbbf24" stroke-width="2" stroke-linecap="round" stroke-dasharray="7 6"/><g><rect x="127.4" y="139.2" width="73.0" height="34.0" rx="8" fill="#070b14" stroke="#1e2b45"/><text x="163.9" y="162.2" fill="#e6ebf5" font-family="Manrope, Segoe UI, sans-serif" font-size="22" font-weight="700" text-anchor="middle">umăr</text></g><g><rect x="333.6" y="50.5" width="60.3" height="34.0" rx="8" fill="#070b14" stroke="#1e2b45"/><text x="363.7" y="73.5" fill="#e6ebf5" font-family="Manrope, Segoe UI, sans-serif" font-size="22" font-weight="700" text-anchor="middle">cap</text></g><g><rect x="527.0" y="156.2" width="73.0" height="34.0" rx="8" fill="#070b14" stroke="#1e2b45"/><text x="563.5" y="179.2" fill="#e6ebf5" font-family="Manrope, Segoe UI, sans-serif" font-size="22" font-weight="700" text-anchor="middle">umăr</text></g><g><rect x="361.8" y="325.8" width="175.1" height="34.0" rx="8" fill="#070b14" stroke="#1e2b45"/><text x="449.4" y="348.8" fill="#e6ebf5" font-family="Manrope, Segoe UI, sans-serif" font-size="22" font-weight="700" text-anchor="middle">linie de gât</text></g><g><rect x="587.9" y="415.4" width="124.1" height="34.0" rx="8" fill="#070b14" stroke="#1e2b45"/><text x="650.0" y="438.4" fill="#e6ebf5" font-family="Manrope, Segoe UI, sans-serif" font-size="22" font-weight="700" text-anchor="middle">spargere</text></g></svg>