<svg xmlns="http://www.w3.org/2000/svg" viewBox="0 0 720 540" width="720" height="540" role="img">
<rect width="720" height="540" fill="#0b1220"/>
<g stroke="#1e2b45" stroke-width="1"><line x1="64" y1="132.4" x2="692" y2="132.4"/><line x1="64" y1="206.8" x2="692" y2="206.8"/><line x1="64" y1="281.2" x2="692" y2="281.2"/><line x1="64" y1="355.6" x2="692" y2="355.6"/><line x1="168.7" y1="58" x2="168.7" y2="430"/><line x1="273.3" y1="58" x2="273.3" y2="430"/><line x1="378.0" y1="58" x2="378.0" y2="430"/><line x1="482.7" y1="58" x2="482.7" y2="430"/><line x1="587.3" y1="58" x2="587.3" y2="430"/></g><text x="42" y="244" fill="#9aa7bd" font-family="Manrope, Segoe UI, sans-serif" font-size="16" font-weight="600" transform="rotate(-90 42 244)" text-anchor="middle">preț</text><text x="378" y="478" fill="#9aa7bd" font-family="Manrope, Segoe UI, sans-serif" font-size="16" font-weight="600" text-anchor="middle">timp →</text><text x="692" y="516" fill="#9aa7bd" font-family="Manrope, Segoe UI, sans-serif" font-size="15" text-anchor="end">exemplu schematic · nu este un grafic de cont</text><line x1="81.4" y1="133.5" x2="81.4" y2="194.6" stroke="#fb7185" stroke-width="1.7"/><rect x="72.4" y="137.3" width="18.0" height="48.5" rx="1.2" fill="#fb7185"/><line x1="116.3" y1="182.0" x2="116.3" y2="243.1" stroke="#fb7185" stroke-width="1.7"/><rect x="107.3" y="185.8" width="18.0" height="48.5" rx="1.2" fill="#fb7185"/><line x1="151.2" y1="230.4" x2="151.2" y2="291.5" stroke="#fb7185" stroke-width="1.7"/><rect x="142.2" y="234.2" width="18.0" height="48.5" rx="1.2" fill="#fb7185"/><line x1="186.1" y1="278.9" x2="186.1" y2="340.0" stroke="#fb7185" stroke-width="1.7"/><rect x="177.1" y="282.7" width="18.0" height="48.5" rx="1.2" fill="#fb7185"/><line x1="221.0" y1="327.4" x2="221.0" y2="388.5" stroke="#fb7185" stroke-width="1.7"/><rect x="212.0" y="331.2" width="18.0" height="48.5" rx="1.2" fill="#fb7185"/><line x1="255.9" y1="336.2" x2="255.9" y2="382.5" stroke="#22c55e" stroke-width="1.7"/><rect x="246.9" y="342.9" width="18.0" height="36.8" rx="1.2" fill="#22c55e"/><line x1="290.8" y1="299.4" x2="290.8" y2="345.7" stroke="#22c55e" stroke-width="1.7"/><rect x="281.8" y="306.1" width="18.0" height="36.8" rx="1.2" fill="#22c55e"/><line x1="325.7" y1="262.6" x2="325.7" y2="309.0" stroke="#22c55e" stroke-width="1.7"/><rect x="316.7" y="269.3" width="18.0" height="36.8" rx="1.2" fill="#22c55e"/><line x1="360.6" y1="225.8" x2="360.6" y2="272.2" stroke="#22c55e" stroke-width="1.7"/><rect x="351.6" y="232.5" width="18.0" height="36.8" rx="1.2" fill="#22c55e"/><line x1="395.4" y1="229.5" x2="395.4" y2="278.5" stroke="#fb7185" stroke-width="1.7"/><rect x="386.4" y="232.5" width="18.0" height="38.9" rx="1.2" fill="#fb7185"/><line x1="430.3" y1="268.4" x2="430.3" y2="317.5" stroke="#fb7185" stroke-width="1.7"/><rect x="421.3" y="271.5" width="18.0" height="38.9" rx="1.2" fill="#fb7185"/><line x1="465.2" y1="307.4" x2="465.2" y2="356.4" stroke="#fb7185" stroke-width="1.7"/><rect x="456.2" y="310.4" width="18.0" height="38.9" rx="1.2" fill="#fb7185"/><line x1="500.1" y1="346.3" x2="500.1" y2="395.4" stroke="#fb7185" stroke-width="1.7"/><rect x="491.1" y="349.3" width="18.0" height="38.9" rx="1.2" fill="#fb7185"/><line x1="535.0" y1="322.8" x2="535.0" y2="392.6" stroke="#22c55e" stroke-width="1.7"/><rect x="526.0" y="332.9" width="18.0" height="55.4" rx="1.2" fill="#22c55e"/><line x1="569.9" y1="267.4" x2="569.9" y2="337.2" stroke="#22c55e" stroke-width="1.7"/><rect x="560.9" y="277.5" width="18.0" height="55.4" rx="1.2" fill="#22c55e"/><line x1="604.8" y1="212.0" x2="604.8" y2="281.9" stroke="#22c55e" stroke-width="1.7"/><rect x="595.8" y="222.1" width="18.0" height="55.4" rx="1.2" fill="#22c55e"/><line x1="639.7" y1="156.7" x2="639.7" y2="226.5" stroke="#22c55e" stroke-width="1.7"/><rect x="630.7" y="166.7" width="18.0" height="55.4" rx="1.2" fill="#22c55e"/><line x1="674.6" y1="101.3" x2="674.6" y2="171.1" stroke="#22c55e" stroke-width="1.7"/><rect x="665.6" y="111.4" width="18.0" height="55.4" rx="1.2" fill="#22c55e"/><line x1="325.7" y1="232.5" x2="674.6" y2="232.5" stroke="#fbbf24" stroke-width="2" stroke-linecap="round" stroke-dasharray="7 6"/><g><rect x="178.1" y="405.5" width="85.8" height="34.0" rx="8" fill="#070b14" stroke="#1e2b45"/><text x="221.0" y="428.5" fill="#e6ebf5" font-family="Manrope, Segoe UI, sans-serif" font-size="22" font-weight="700" text-anchor="middle">minim</text></g><g><rect x="457.2" y="412.4" width="85.8" height="34.0" rx="8" fill="#070b14" stroke="#1e2b45"/><text x="500.1" y="435.4" fill="#e6ebf5" font-family="Manrope, Segoe UI, sans-serif" font-size="22" font-weight="700" text-anchor="middle">minim</text></g><g><rect x="273.0" y="178.8" width="175.1" height="34.0" rx="8" fill="#070b14" stroke="#1e2b45"/><text x="360.6" y="201.8" fill="#e6ebf5" font-family="Manrope, Segoe UI, sans-serif" font-size="22" font-weight="700" text-anchor="middle">linie de gât</text></g><g><rect x="587.9" y="54.3" width="124.1" height="34.0" rx="8" fill="#070b14" stroke="#1e2b45"/><text x="650.0" y="77.3" fill="#e6ebf5" font-family="Manrope, Segoe UI, sans-serif" font-size="22" font-weight="700" text-anchor="middle">spargere</text></g></svg>